<?xml version="1.0" encoding="UTF-8"?>
<svg width="960" height="600" viewBox="0 0 960 600" xmlns="http://www.w3.org/2000/svg">
  <defs>
    <linearGradient id="bg" x1="0" y1="0" x2="1" y2="1">
      <stop offset="0%" stop-color="#0f172a"/>
      <stop offset="100%" stop-color="#1e293b"/>
    </linearGradient>
    <linearGradient id="accent" x1="0" y1="0" x2="1" y2="0">
      <stop offset="0%" stop-color="#22d3ee"/>
      <stop offset="100%" stop-color="#818cf8"/>
    </linearGradient>
  </defs>

  <rect x="0" y="0" width="960" height="600" fill="url(#bg)"/>
  <rect x="60" y="60" width="840" height="480" rx="28" fill="#0b1220" stroke="#334155"/>
  <rect x="60" y="60" width="840" height="10" rx="28" fill="url(#accent)"/>

  <text x="110" y="140" fill="#e2e8f0" font-family="Inter, system-ui, sans-serif" font-size="46" font-weight="700">SkillFeed</text>
  <text x="110" y="180" fill="#94a3b8" font-family="Inter, system-ui, sans-serif" font-size="24">Scan to install this skill</text>

  <rect x="520" y="120" width="320" height="320" rx="16" fill="#ffffff"/>
  <g transform="translate(540,140)"><path fill="#ffffff" d="M0 0h25v25H0z"/><path stroke="#111827" d="M0 0.5h7m1 0h1m1 0h3m1 0h3m1 0h7M0 1.5h1m5 0h1m2 0h1m1 0h2m1 0h1m1 0h1m1 0h1m5 0h1M0 2.5h1m1 0h3m1 0h1m2 0h1m1 0h1m2 0h1m1 0h1m1 0h1m1 0h3m1 0h1M0 3.5h1m1 0h3m1 0h1m1 0h2m2 0h4m2 0h1m1 0h3m1 0h1M0 4.5h1m1 0h3m1 0h1m1 0h2m1 0h2m1 0h3m1 0h1m1 0h3m1 0h1M0 5.5h1m5 0h1m1 0h1m3 0h3m3 0h1m5 0h1M0 6.5h7m1 0h1m1 0h1m1 0h1m1 0h1m1 0h1m1 0h7M8 7.5h1m2 0h1m2 0h3M0 8.5h1m3 0h1m1 0h3m1 0h3m4 0h5m2 0h1M0 9.5h2m1 0h1m1 0h1m8 0h2m4 0h1M0 10.5h1m4 0h4m3 0h1m1 0h3m1 0h2m2 0h1M0 11.5h1m3 0h1m4 0h1m1 0h2m2 0h1m1 0h2m1 0h1m1 0h2M0 12.5h4m2 0h2m1 0h2m1 0h1m2 0h1m1 0h3m1 0h3M0 13.5h2m1 0h3m1 0h2m1 0h1m1 0h1m1 0h4m2 0h2M2 14.5h3m1 0h6m2 0h4M3 15.5h2m2 0h3m1 0h2m2 0h1m2 0h1m3 0h1m1 0h1M0 16.5h3m1 0h1m1 0h2m4 0h1m1 0h7m1 0h1m1 0h1M8 17.5h1m1 0h2m2 0h1m1 0h1m3 0h1m1 0h1M0 18.5h7m1 0h1m1 0h3m1 0h1m1 0h1m1 0h1m1 0h3M0 19.5h1m5 0h1m2 0h1m1 0h2m1 0h1m1 0h1m3 0h1m1 0h3M0 20.5h1m1 0h3m1 0h1m1 0h1m1 0h1m1 0h1m3 0h7M0 21.5h1m1 0h3m1 0h1m3 0h2m1 0h3m1 0h3m1 0h1m1 0h2M0 22.5h1m1 0h3m1 0h1m3 0h7m1 0h1m3 0h2M0 23.5h1m5 0h1m3 0h3m2 0h1m4 0h1m1 0h2M0 24.5h7m1 0h3m1 0h1m2 0h1m2 0h3m1 0h3"/></g>

  <text x="110" y="260" fill="#cbd5e1" font-family="ui-monospace, SFMono-Regular, Menlo, monospace" font-size="22">Slug: skill-feed</text>
  <text x="110" y="305" fill="#cbd5e1" font-family="ui-monospace, SFMono-Regular, Menlo, monospace" font-size="22">Mode: install</text>

  <rect x="110" y="360" width="360" height="56" rx="12" fill="#111827" stroke="#334155"/>
  <text x="130" y="395" fill="#22d3ee" font-family="ui-monospace, SFMono-Regular, Menlo, monospace" font-size="20">clawhub install skill-feed</text>

  <text x="110" y="500" fill="#64748b" font-family="Inter, system-ui, sans-serif" font-size="18">Generated by qr-skill-card</text>
</svg>