<svg xmlns="http://www.w3.org/2000/svg" viewBox="0 0 128 128" width="128" height="128">
  <defs>
    <linearGradient id="bg" x1="0%" y1="0%" x2="100%" y2="100%">
      <stop offset="0%" style="stop-color:#4F46E5;stop-opacity:1" />
      <stop offset="100%" style="stop-color:#7C3AED;stop-opacity:1" />
    </linearGradient>
  </defs>
  <!-- Background -->
  <rect x="0" y="0" width="128" height="128" rx="24" fill="url(#bg)"/>
  
  <!-- Document shape -->
  <path d="M32 16 L80 16 L96 32 L96 112 L32 112 Z" fill="white" opacity="0.95"/>
  
  <!-- Fold corner -->
  <path d="M80 16 L80 32 L96 32 Z" fill="#E5E7EB"/>
  
  <!-- Text lines -->
  <rect x="40" y="40" width="48" height="4" rx="2" fill="#374151"/>
  <rect x="40" y="50" width="40" height="4" rx="2" fill="#6B7280"/>
  <rect x="40" y="60" width="44" height="4" rx="2" fill="#6B7280"/>
  <rect x="40" y="70" width="36" height="4" rx="2" fill="#6B7280"/>
  
  <!-- Table representation -->
  <rect x="40" y="84" width="48" height="20" rx="2" fill="#EEF2FF" stroke="#4F46E5" stroke-width="1.5"/>
  <line x1="40" y1="91" x2="88" y2="91" stroke="#4F46E5" stroke-width="1"/>
  <line x1="56" y1="84" x2="56" y2="104" stroke="#4F46E5" stroke-width="1"/>
  
  <!-- Magnifying glass -->
  <circle cx="92" cy="92" r="16" fill="white" opacity="0.9"/>
  <circle cx="92" cy="92" r="10" fill="none" stroke="#4F46E5" stroke-width="2.5"/>
  <line x1="100" y1="100" x2="110" y2="110" stroke="#4F46E5" stroke-width="3" stroke-linecap="round"/>
</svg>
